<svg xmlns="http://www.w3.org/2000/svg" width="64" height="64" viewBox="0 0 64 64">
  <defs>
    <linearGradient id="openBody" x1="0" x2="0" y1="0" y2="1">
      <stop offset="0" stop-color="#b16b34"/>
      <stop offset="1" stop-color="#603214"/>
    </linearGradient>
    <linearGradient id="openLid" x1="0" x2="0" y1="0" y2="1">
      <stop offset="0" stop-color="#db9850"/>
      <stop offset="1" stop-color="#87491f"/>
    </linearGradient>
    <linearGradient id="shine" x1="0" x2="0" y1="0" y2="1">
      <stop offset="0" stop-color="#fff5b7"/>
      <stop offset="1" stop-color="#ffcf67"/>
    </linearGradient>
  </defs>
  <ellipse cx="32" cy="54" rx="22" ry="7" fill="#000000" opacity="0.24"/>
  <path d="M11 33c0-4.4 3.4-8 7.8-8h26.4c4.4 0 7.8 3.6 7.8 8v13.5c0 4.1-3.3 7.5-7.5 7.5h-27c-4.2 0-7.5-3.4-7.5-7.5Z" fill="url(#openBody)"/>
  <rect x="12" y="35" width="40" height="5" rx="1.5" fill="#d8ab58"/>
  <rect x="27" y="24" width="10" height="30" rx="2.2" fill="#c99843"/>
  <path d="M15 27 21 14h22l6 13" fill="url(#openLid)"/>
  <path d="M17 26 22 18h20l5 8" fill="#dc9e57"/>
  <path d="M24 19h16" stroke="#ffe1a6" stroke-width="2.2" opacity="0.78"/>
  <path d="M25 28c1.8-4.5 4.2-6.8 7-6.8s5.2 2.3 7 6.8v8H25Z" fill="#3d2412"/>
  <path d="M17 14 13 7M26 12 25 3M32 11V2M38 12 39 3M47 14 51 7" stroke="url(#shine)" stroke-width="3.2" stroke-linecap="round"/>
  <circle cx="32" cy="26" r="3.2" fill="#fff4b8"/>
  <path d="M11 33c0-4.4 3.4-8 7.8-8h26.4c4.4 0 7.8 3.6 7.8 8v13.5c0 4.1-3.3 7.5-7.5 7.5h-27c-4.2 0-7.5-3.4-7.5-7.5Z" stroke="#2e170b" stroke-width="1.6" fill="none"/>
  <path d="M15 27 21 14h22l6 13" stroke="#5b3014" stroke-width="1.4" fill="none"/>
</svg>
