<svg xmlns="http://www.w3.org/2000/svg" width="64" height="64" viewBox="0 0 64 64">
  <defs>
    <linearGradient id="heartFill" x1="0" x2="0" y1="0" y2="1">
      <stop offset="0" stop-color="#ff9db0"/>
      <stop offset="1" stop-color="#d32652"/>
    </linearGradient>
  </defs>
  <ellipse cx="32" cy="53" rx="18" ry="5" fill="#000000" opacity="0.18"/>
  <path d="M32 56 12 35c-7-7-6-18 1-23 7-5 14-2 19 4 5-6 12-9 19-4 7 5 8 16 1 23Z" fill="#4d101d"/>
  <path d="M32 50 16 32c-5-5-4-12 1-16 5-3 10-1 15 5 5-6 10-8 15-5 5 4 6 11 1 16Z" fill="url(#heartFill)"/>
  <path d="M32 18c5-6 10-8 15-5 3 2 5 5 5 9-8-3-15-2-20 4-5-6-12-7-20-4 0-4 2-7 5-9 5-3 10-1 15 5Z" fill="#ffd2dd" opacity="0.2"/>
  <rect x="29" y="20" width="6" height="20" rx="2" fill="#fff2d8"/>
  <rect x="22" y="27" width="20" height="6" rx="2" fill="#fff2d8"/>
</svg>
