<svg xmlns="http://www.w3.org/2000/svg" viewBox="0 0 32 32">
<defs>
<linearGradient id="bg" x1="0" y1="0" x2="1" y2="1"><stop offset="0" stop-color="#251a17"/><stop offset="1" stop-color="#0e0a0a"/></linearGradient>
<linearGradient id="bone" x1="0" y1="0" x2="0" y2="1"><stop offset="0" stop-color="#fff5dd"/><stop offset="1" stop-color="#b89b74"/></linearGradient>
</defs>
<rect width="32" height="32" rx="7" fill="url(#bg)"/>
<rect x="2" y="2" width="28" height="28" rx="5" fill="none" stroke="#4b342a" stroke-width="1.2"/>
<ellipse cx="16" cy="24.5" rx="9" ry="3" fill="#000" opacity=".28"/>
<path d="M16 3.5 L18.2 7.2 L16.2 10.4 L18.4 13.6 L16.1 16.8 L18.3 20.1 L16.1 23.6 L18 27.3 L16 29.2 L14 27.3 L15.9 23.6 L13.7 20.1 L15.9 16.8 L13.6 13.6 L15.8 10.4 L13.8 7.2 Z" fill="url(#bone)" stroke="#7e674d" stroke-width=".9"/>
<path d="M10.6 8.6 H21.4 M9.7 14.2 H22.3 M10.4 19.9 H21.6 M9.8 25.5 H22.2" stroke="#d7bf98" stroke-width="2.1" stroke-linecap="round"/>
<path d="M15.2 6.2 L16 5 L16.8 6.2 M15.2 26.3 L16 27.5 L16.8 26.3" stroke="#fffaf1" stroke-width="1.2" stroke-linecap="round"/>
</svg>
