<svg xmlns="http://www.w3.org/2000/svg" viewBox="0 0 32 32">
<defs>
<radialGradient id="drop" cx=".45" cy=".28" r=".82"><stop offset="0" stop-color="#ff9ea5"/><stop offset=".55" stop-color="#d73343"/><stop offset="1" stop-color="#5e1018"/></radialGradient>
</defs>
<rect width="32" height="32" rx="7" fill="#140b0d"/>
<rect x="2" y="2" width="28" height="28" rx="5" fill="none" stroke="#4a1a22" stroke-width="1.1"/>
<ellipse cx="16" cy="25.5" rx="8" ry="3" fill="#000" opacity=".22"/>
<path d="M16 3.5 C20.5 9.6 24.8 12.8 24.8 18.9 C24.8 24.4 20.8 28.6 16 28.6 C11.2 28.6 7.2 24.4 7.2 18.9 C7.2 12.8 11.5 9.6 16 3.5 Z" fill="url(#drop)" stroke="#ffd4d7" stroke-width=".9"/>
<path d="M16.2 7.2 C18.7 11.1 20.4 13.3 20.4 16.9 C20.4 20.3 18.4 22.9 16 22.9 C13.6 22.9 11.6 20.3 11.6 16.9 C11.6 13.3 13.6 10.7 16.2 7.2 Z" fill="#ffbcc1" opacity=".75"/>
<path d="M12.8 11.4 C14.1 10 15.3 9 16.6 8.1" stroke="#fff1f2" stroke-width="1.3" stroke-linecap="round" opacity=".9"/>
<path d="M9.3 22.2 C11.5 24.7 13.6 25.8 16 25.8 C18.9 25.8 21.1 24.5 22.9 21.8" stroke="#6d1822" stroke-width="1.2" stroke-linecap="round" opacity=".8"/>
</svg>
