<svg xmlns="http://www.w3.org/2000/svg" width="64" height="64" viewBox="0 0 64 64">
  <defs>
    <linearGradient id="rockFill" x1="0" x2="0" y1="0" y2="1">
      <stop offset="0" stop-color="#aeb2b9"/>
      <stop offset="1" stop-color="#5a5f67"/>
    </linearGradient>
  </defs>
  <ellipse cx="32" cy="52" rx="18" ry="5" fill="#000000" opacity="0.18"/>
  <path d="M12 42 17 24 31 14 48 19 55 35 49 49 28 54Z" fill="#555962"/>
  <path d="M15 41 20 26 32 18 46 22 51 35 45 47 28 50Z" fill="url(#rockFill)"/>
  <path d="M24 24 33 19 43 24 38 31 24 32 20 28Z" fill="#dadde2" opacity="0.55"/>
  <path d="M23 33 31 28 37 32 35 39 27 41Z" fill="#80858f" opacity="0.45"/>
  <path d="M29 18 24 32M43 24 36 39M20 28 45 47" stroke="#4a4e56" stroke-width="2" opacity="0.55"/>
</svg>
